<?xml version="1.0" encoding="utf-8"?>
<!-- Generator: Adobe Illustrator 22.0.1, SVG Export Plug-In . SVG Version: 6.00 Build 0)  -->
<svg version="1.1" id="Layer_1" xmlns="http://www.w3.org/2000/svg" xmlns:xlink="http://www.w3.org/1999/xlink" x="0px" y="0px"
	 viewBox="0 0 135 135" style="enable-background:new 0 0 135 135;" xml:space="preserve">
<style type="text/css">
	.st0{fill:#FF1A1A;}
	.st1{fill:#FFFFFF;}
	.st2{fill:#33363A;}
	.st3{fill:#A7BBC1;}
	.st4{fill:#D8E5EA;}
</style>
<g>
	<g>
		<circle class="st0" cx="67.5" cy="67.5" r="64.4"/>
	</g>
	<g>
		<path class="st1" d="M3.1,67.5c0,35.6,28.8,64.4,64.4,64.4c35.5,0,64.4-28.8,64.4-64.4H3.1z"/>
	</g>
	<g>
		<path class="st2" d="M67.5,135C30.3,135,0,104.7,0,67.5C0,30.3,30.3,0,67.5,0S135,30.3,135,67.5C135,104.7,104.7,135,67.5,135z
			 M67.5,6.3C33.7,6.3,6.3,33.7,6.3,67.5c0,33.8,27.5,61.2,61.2,61.2s61.2-27.5,61.2-61.2C128.7,33.7,101.3,6.3,67.5,6.3z"/>
	</g>
	<g>
		<path class="st2" d="M131.9,70.6H3.1c-1.7,0-3.1-1.4-3.1-3.1s1.4-3.1,3.1-3.1h128.7c1.7,0,3.1,1.4,3.1,3.1S133.6,70.6,131.9,70.6z
			"/>
	</g>
	<g>
		<g>
			<circle class="st3" cx="67.5" cy="73.9" r="19.5"/>
		</g>
		<g>
			<circle class="st1" cx="67.5" cy="67.3" r="19.5"/>
		</g>
		<g>
			<path class="st4" d="M53.7,81.1c-7.6-7.6-7.6-19.9,0-27.6c7.6-7.6,20-7.6,27.6,0"/>
		</g>
		<g>
			<path class="st2" d="M67.5,89.9c-6,0-11.7-2.4-16-6.6c-4.3-4.3-6.6-10-6.6-16c0-6,2.4-11.7,6.6-16c4.3-4.3,10-6.6,16-6.6
				c6,0,11.7,2.4,16,6.6c4.3,4.3,6.6,10,6.6,16s-2.4,11.7-6.6,16C79.2,87.6,73.5,89.9,67.5,89.9z M67.5,51c-4.4,0-8.5,1.7-11.6,4.8
				c-3.1,3.1-4.8,7.2-4.8,11.6s1.7,8.5,4.8,11.6c3.1,3.1,7.2,4.8,11.6,4.8S76,82,79.1,78.9c3.1-3.1,4.8-7.2,4.8-11.6
				s-1.7-8.5-4.8-11.6C76,52.7,71.9,51,67.5,51z"/>
		</g>
	</g>
</g>
</svg>
